<mxfile host="Electron" modified="2023-12-11T23:09:09.692Z" agent="Mozilla/5.0 (Windows NT 10.0; Win64; x64) AppleWebKit/537.36 (KHTML, like Gecko) draw.io/22.1.2 Chrome/114.0.5735.289 Electron/25.9.4 Safari/537.36" etag="POtwhX4IFKUL5q6KHnwb" version="22.1.2" type="device">
  <diagram name="Page-1" id="XGGPJhqjdagpd5VtSqAP">
    <mxGraphModel dx="988" dy="573" grid="1" gridSize="10" guides="1" tooltips="1" connect="1" arrows="1" fold="1" page="1" pageScale="1" pageWidth="850" pageHeight="1100" math="0" shadow="0">
      <root>
        <mxCell id="0" />
        <mxCell id="1" parent="0" />
        <mxCell id="pKIawOWkSoRLGqF8TNIB-1" value="Events to Account for" style="text;html=1;align=center;verticalAlign=middle;resizable=0;points=[];autosize=1;strokeColor=none;fillColor=none;" parent="1" vertex="1">
          <mxGeometry x="355" y="10" width="140" height="30" as="geometry" />
        </mxCell>
        <mxCell id="pKIawOWkSoRLGqF8TNIB-2" value="Player" style="ellipse;whiteSpace=wrap;html=1;aspect=fixed;fillColor=#1ba1e2;fontColor=#ffffff;strokeColor=#006EAF;" parent="1" vertex="1">
          <mxGeometry x="70" y="40" width="80" height="80" as="geometry" />
        </mxCell>
        <mxCell id="pKIawOWkSoRLGqF8TNIB-3" value="Creates" style="triangle;whiteSpace=wrap;html=1;" parent="1" vertex="1">
          <mxGeometry x="160" y="40" width="60" height="80" as="geometry" />
        </mxCell>
        <mxCell id="pKIawOWkSoRLGqF8TNIB-4" value="Projectile" style="rhombus;whiteSpace=wrap;html=1;fillColor=#a20025;fontColor=#ffffff;strokeColor=#6F0000;" parent="1" vertex="1">
          <mxGeometry x="230" y="40" width="80" height="80" as="geometry" />
        </mxCell>
        <mxCell id="pKIawOWkSoRLGqF8TNIB-5" value="Player" style="ellipse;whiteSpace=wrap;html=1;aspect=fixed;fillColor=#1ba1e2;fontColor=#ffffff;strokeColor=#006EAF;" parent="1" vertex="1">
          <mxGeometry x="540" y="40" width="80" height="80" as="geometry" />
        </mxCell>
        <mxCell id="pKIawOWkSoRLGqF8TNIB-7" value="" style="shape=flexArrow;endArrow=classic;html=1;rounded=0;" parent="1" edge="1">
          <mxGeometry width="50" height="50" relative="1" as="geometry">
            <mxPoint x="530" y="79.76" as="sourcePoint" />
            <mxPoint x="470" y="79.76" as="targetPoint" />
          </mxGeometry>
        </mxCell>
        <mxCell id="pKIawOWkSoRLGqF8TNIB-8" value="" style="shape=flexArrow;endArrow=classic;html=1;rounded=0;" parent="1" edge="1">
          <mxGeometry width="50" height="50" relative="1" as="geometry">
            <mxPoint x="630" y="80" as="sourcePoint" />
            <mxPoint x="690" y="80" as="targetPoint" />
          </mxGeometry>
        </mxCell>
        <mxCell id="pKIawOWkSoRLGqF8TNIB-9" value="Move Right" style="text;html=1;align=center;verticalAlign=middle;resizable=0;points=[];autosize=1;strokeColor=none;fillColor=none;" parent="1" vertex="1">
          <mxGeometry x="620" y="38" width="80" height="30" as="geometry" />
        </mxCell>
        <mxCell id="pKIawOWkSoRLGqF8TNIB-10" value="Move Left" style="text;html=1;align=center;verticalAlign=middle;resizable=0;points=[];autosize=1;strokeColor=none;fillColor=none;" parent="1" vertex="1">
          <mxGeometry x="460" y="38" width="80" height="30" as="geometry" />
        </mxCell>
        <mxCell id="pKIawOWkSoRLGqF8TNIB-11" value="" style="endArrow=none;html=1;rounded=0;entryX=0.462;entryY=1.106;entryDx=0;entryDy=0;entryPerimeter=0;" parent="1" target="pKIawOWkSoRLGqF8TNIB-1" edge="1">
          <mxGeometry width="50" height="50" relative="1" as="geometry">
            <mxPoint x="420" y="190" as="sourcePoint" />
            <mxPoint x="420" y="50" as="targetPoint" />
          </mxGeometry>
        </mxCell>
        <mxCell id="pKIawOWkSoRLGqF8TNIB-12" value="&lt;div style=&quot;&quot;&gt;&lt;span style=&quot;background-color: initial;&quot;&gt;Player shoots the projectile&lt;/span&gt;&lt;/div&gt;&lt;div style=&quot;&quot;&gt;&lt;span style=&quot;background-color: initial;&quot;&gt;Thats about it honestly&lt;/span&gt;&lt;/div&gt;" style="text;html=1;strokeColor=none;fillColor=none;align=left;verticalAlign=middle;whiteSpace=wrap;rounded=0;" parent="1" vertex="1">
          <mxGeometry x="95" y="130" width="190" height="30" as="geometry" />
        </mxCell>
        <mxCell id="pKIawOWkSoRLGqF8TNIB-13" value="Limit player movement&lt;br&gt;&lt;span style=&quot;white-space: pre;&quot;&gt;&#x9;&lt;/span&gt;Can only go so far to the right/left" style="text;html=1;strokeColor=none;fillColor=none;align=left;verticalAlign=middle;whiteSpace=wrap;rounded=0;" parent="1" vertex="1">
          <mxGeometry x="470" y="130" width="220" height="30" as="geometry" />
        </mxCell>
        <mxCell id="pKIawOWkSoRLGqF8TNIB-57" value="Classname" style="swimlane;fontStyle=1;align=center;verticalAlign=top;childLayout=stackLayout;horizontal=1;startSize=26;horizontalStack=0;resizeParent=1;resizeParentMax=0;resizeLast=0;collapsible=1;marginBottom=0;whiteSpace=wrap;html=1;" parent="1" vertex="1">
          <mxGeometry x="275" y="210" width="290" height="250" as="geometry" />
        </mxCell>
        <mxCell id="pKIawOWkSoRLGqF8TNIB-58" value="Mesh : SkeletalMeshComponent&lt;br&gt;FloatingPawnMovement : FloatingPawnMovement&lt;br&gt;MovementSpeed : float&lt;br&gt;AreaLimit : float&lt;br&gt;ProjectileOffset : FVector&lt;br&gt;Health : float&lt;br&gt;MaxHealth : float&lt;br&gt;Armor : float" style="text;strokeColor=none;fillColor=none;align=left;verticalAlign=top;spacingLeft=4;spacingRight=4;overflow=hidden;rotatable=0;points=[[0,0.5],[1,0.5]];portConstraint=eastwest;whiteSpace=wrap;html=1;" parent="pKIawOWkSoRLGqF8TNIB-57" vertex="1">
          <mxGeometry y="26" width="290" height="124" as="geometry" />
        </mxCell>
        <mxCell id="pKIawOWkSoRLGqF8TNIB-59" value="" style="line;strokeWidth=1;fillColor=none;align=left;verticalAlign=middle;spacingTop=-1;spacingLeft=3;spacingRight=3;rotatable=0;labelPosition=right;points=[];portConstraint=eastwest;strokeColor=inherit;" parent="pKIawOWkSoRLGqF8TNIB-57" vertex="1">
          <mxGeometry y="150" width="290" height="8" as="geometry" />
        </mxCell>
        <mxCell id="pKIawOWkSoRLGqF8TNIB-60" value="Shoot(Projectile)" style="text;strokeColor=none;fillColor=none;align=left;verticalAlign=top;spacingLeft=4;spacingRight=4;overflow=hidden;rotatable=0;points=[[0,0.5],[1,0.5]];portConstraint=eastwest;whiteSpace=wrap;html=1;" parent="pKIawOWkSoRLGqF8TNIB-57" vertex="1">
          <mxGeometry y="158" width="290" height="30" as="geometry" />
        </mxCell>
        <mxCell id="pKIawOWkSoRLGqF8TNIB-63" value="" style="line;strokeWidth=1;fillColor=none;align=left;verticalAlign=middle;spacingTop=-1;spacingLeft=3;spacingRight=3;rotatable=0;labelPosition=right;points=[];portConstraint=eastwest;strokeColor=inherit;" parent="pKIawOWkSoRLGqF8TNIB-57" vertex="1">
          <mxGeometry y="188" width="290" height="8" as="geometry" />
        </mxCell>
        <mxCell id="pKIawOWkSoRLGqF8TNIB-62" value="&lt;b&gt;Blueprint Implementation&lt;/b&gt;&lt;br&gt;Movement (1D Movement)&lt;br&gt;Adding specified projectile to Shoot function" style="text;strokeColor=none;fillColor=none;align=left;verticalAlign=top;spacingLeft=4;spacingRight=4;overflow=hidden;rotatable=0;points=[[0,0.5],[1,0.5]];portConstraint=eastwest;whiteSpace=wrap;html=1;" parent="pKIawOWkSoRLGqF8TNIB-57" vertex="1">
          <mxGeometry y="196" width="290" height="54" as="geometry" />
        </mxCell>
        <mxCell id="pKIawOWkSoRLGqF8TNIB-64" value="Mesh will be StaticMesh at the prototyping phase, and change to SkeletalMesh when implementing animation" style="text;html=1;strokeColor=none;fillColor=none;align=center;verticalAlign=middle;whiteSpace=wrap;rounded=0;" parent="1" vertex="1">
          <mxGeometry x="25" y="230" width="205" height="44" as="geometry" />
        </mxCell>
        <mxCell id="pKIawOWkSoRLGqF8TNIB-66" style="edgeStyle=orthogonalEdgeStyle;rounded=0;orthogonalLoop=1;jettySize=auto;html=1;entryX=-0.001;entryY=0.155;entryDx=0;entryDy=0;entryPerimeter=0;" parent="1" source="pKIawOWkSoRLGqF8TNIB-64" target="pKIawOWkSoRLGqF8TNIB-58" edge="1">
          <mxGeometry relative="1" as="geometry" />
        </mxCell>
        <mxCell id="pKIawOWkSoRLGqF8TNIB-67" value="Projectile" style="html=1;whiteSpace=wrap;" parent="1" vertex="1">
          <mxGeometry x="715" y="285" width="110" height="50" as="geometry" />
        </mxCell>
        <mxCell id="pKIawOWkSoRLGqF8TNIB-68" value="Needs to be aware of" style="text;html=1;strokeColor=none;fillColor=none;align=center;verticalAlign=middle;whiteSpace=wrap;rounded=0;" parent="1" vertex="1">
          <mxGeometry x="605" y="315" width="75" height="30" as="geometry" />
        </mxCell>
        <mxCell id="pKIawOWkSoRLGqF8TNIB-70" style="edgeStyle=orthogonalEdgeStyle;rounded=0;orthogonalLoop=1;jettySize=auto;html=1;exitX=1.005;exitY=0.902;exitDx=0;exitDy=0;exitPerimeter=0;" parent="1" source="pKIawOWkSoRLGqF8TNIB-58" target="pKIawOWkSoRLGqF8TNIB-67" edge="1">
          <mxGeometry relative="1" as="geometry" />
        </mxCell>
      </root>
    </mxGraphModel>
  </diagram>
</mxfile>
